{
  "accessors": [
    {
      "bufferView": 0,
      "componentType": 5126,
      "count": 10572,
      "max": [
        221.92080688476563,
        176.3612823486328,
        316.0607604980469
      ],
      "min": [
        -221.92080688476563,
        -176.3612823486328,
        -316.0607604980469
      ],
      "type": "VEC3"
    },
    {
      "bufferView": 0,
      "byteOffset": 12,
      "componentType": 5126,
      "count": 10572,
      "type": "VEC3"
    },
    {
      "bufferView": 1,
      "componentType": 5125,
      "count": 27327,
      "type": "SCALAR"
    }
  ],
  "asset": {
    "version": "2.0"
  },
  "bufferViews": [
    {
      "buffer": 0,
      "byteLength": 338304,
      "byteStride": 32,
      "target": 34962
    },
    {
      "buffer": 0,
      "byteLength": 109308,
      "byteOffset": 338304,
      "target": 34963
    }
  ],
  "buffers": [
    {
      "byteLength": 447612,
      "uri": "Telex.bin"
    }
  ],
  "materials": [
    {
      "name": "DefaultMaterial",
      "pbrMetallicRoughness": {
        "baseColorFactor": [
          0.6000000238418579,
          0.6000000238418579,
          0.6000000238418579,
          1.0
        ],
        "metallicFactor": 0.0,
        "roughnessFactor": 0.5678070187568665
      }
    }
  ],
  "meshes": [
    {
      "name": "TelexPrinter",
      "primitives": [
        {
          "attributes": {
            "NORMAL": 1,
            "POSITION": 0
          },
          "indices": 2,
          "material": 0,
          "mode": 4
        }
      ]
    }
  ],
  "nodes": [
    {
      "matrix": [
        0.01,
        0.0,
        0.0,
        0.0,
        0.0,
        0.01,
        0.0,
        0.0,
        0.0,
        0.0,
        0.01,
        0.0,
        0.0,
        0.0,
        0.0,
        1.0
      ],
      "mesh": 0,
      "name": "TelexPrinter"
    },
    {
      "children": [
        0
      ],
      "matrix": [
        1.0,
        0.0,
        0.0,
        0.0,
        0.0,
        1.0,
        4.371138828673793e-08,
        0.0,
        0.0,
        -4.371138828673793e-08,
        1.0,
        0.0,
        0.0,
        0.0,
        0.0,
        1.0
      ]
    }
  ],
  "scenes": [
    {
      "nodes": [
        1
      ]
    }
  ]
}
